<svg width="192" height="53" viewBox="0 0 192 53" fill="none" xmlns="http://www.w3.org/2000/svg">
<path d="M66.2655 42.1903L57.4463 10.7291H67.1555L72.2529 31.2998L77.6738 10.7291H87.3831L78.3211 42.1903H66.2655Z" fill="white"/>
<path d="M103.08 42.1096V10.6484H112.061V33.8006H122.66V42.1096H103.08Z" fill="white"/>
<path d="M125.006 42.1096V10.6484H134.554V42.1096H125.006Z" fill="white"/>
<path d="M163.843 18.9574V42.1096H173.391V18.9574H180.673V10.6484H137.709V42.1096H147.257V30.4125H156.723V22.1035H147.257V18.9574H163.843Z" fill="white"/>
<path d="M179.378 41.1416L178.973 40.4962H178.65V41.1416H178.407V39.5282H179.054C179.378 39.5282 179.621 39.6895 179.621 40.0122C179.621 40.1406 179.57 40.2637 179.479 40.3544C179.387 40.4452 179.264 40.4962 179.135 40.4962L179.621 41.1416H179.378ZM179.378 40.0122C179.378 39.9266 179.344 39.8445 179.283 39.784C179.223 39.7235 179.14 39.6895 179.054 39.6895H178.65V40.3349H179.054C179.14 40.3349 179.223 40.3009 179.283 40.2404C179.344 40.1798 179.378 40.0978 179.378 40.0122Z" fill="white"/>
<path d="M179.459 41.9482C179.181 42.0089 178.892 41.9988 178.618 41.9189C178.345 41.8391 178.096 41.692 177.895 41.4911C177.693 41.2903 177.546 41.0423 177.466 40.7697C177.385 40.4972 177.375 40.209 177.436 39.9315C177.515 39.6725 177.662 39.4391 177.861 39.2549C178.06 39.0707 178.304 38.9423 178.569 38.8828C178.839 38.7938 179.129 38.7814 179.406 38.847C179.683 38.9126 179.937 39.0536 180.138 39.2544C180.339 39.4552 180.481 39.7078 180.547 39.984C180.612 40.2602 180.6 40.5493 180.511 40.8189C180.451 41.083 180.322 41.3266 180.138 41.525C179.953 41.7233 179.719 41.8694 179.459 41.9482ZM179.297 38.9635C179.064 38.9201 178.825 38.934 178.599 39.0038C178.373 39.0736 178.167 39.1972 178 39.3641C177.832 39.5309 177.708 39.7359 177.638 39.9612C177.568 40.1866 177.555 40.4256 177.598 40.6575C177.645 40.9402 177.779 41.201 177.982 41.4036C178.186 41.6062 178.447 41.7402 178.731 41.7869C178.963 41.8302 179.203 41.8164 179.429 41.7466C179.655 41.6768 179.861 41.5532 180.028 41.3863C180.195 41.2195 180.319 41.0145 180.389 40.7891C180.459 40.5638 180.473 40.3248 180.43 40.0928C180.356 39.8228 180.212 39.5766 180.013 39.3786C179.815 39.1806 179.568 39.0375 179.297 38.9635Z" fill="white"/>
<path d="M0 42.1903H12.9456C20.8748 42.1903 27.1858 38.5601 29.3704 31.9452C31.1504 38.6408 36.4905 42.8356 44.7434 42.8356C48.6271 42.8356 54.3717 41.8676 57.689 39.2055L53.2389 32.5099C51.5398 33.8006 47.8989 34.6073 46.1188 34.6073C41.9115 34.6073 39.7269 32.3486 39.0796 30.4932V30.0898H59.1454V27.9924C59.1454 17.6667 53.8862 10.7291 44.3388 10.7291C36.8142 10.7291 31.4741 15.0046 29.5322 21.2968C27.5095 14.4399 21.0367 10.6484 12.9456 10.6484H0V42.1903ZM12.9456 33.8813H8.33375V18.9574H12.9456C18.1239 18.9574 20.5512 22.1035 20.5512 26.379C20.5738 27.3772 20.3918 28.3696 20.0166 29.2953C19.6413 30.221 19.0805 31.0607 18.3686 31.7629C17.6567 32.4652 16.8086 33.0152 15.8762 33.3795C14.9437 33.7437 13.9465 33.9145 12.9456 33.8813ZM38.8369 23.3136L38.9987 22.9102C39.2668 21.7231 39.9532 20.6712 40.9331 19.9458C41.913 19.2205 43.1215 18.8697 44.3388 18.9574C48.3034 18.9574 49.4362 21.4581 49.7598 22.9909V23.3136H38.8369Z" fill="white"/>
<path d="M120.799 53V47.5951L118.614 53H118.291L116.106 47.5951V53H115.297V46.5464H116.43L118.453 51.4673L120.475 46.5464H121.608V53H120.799Z" fill="#6AC9C8"/>
<path d="M129.537 53V46.5464H133.745V47.2724H130.346V49.3699H133.664V50.0152H130.346V52.274H133.745V53H129.537Z" fill="#6AC9C8"/>
<path d="M141.431 53V46.5464H143.616C144.474 46.5464 145.297 46.8864 145.904 47.4915C146.511 48.0967 146.852 48.9174 146.852 49.7732C146.852 50.629 146.511 51.4497 145.904 52.0549C145.297 52.66 144.474 53 143.616 53H141.431ZM146.124 49.7732C146.148 49.4386 146.1 49.1028 145.982 48.7885C145.864 48.4742 145.681 48.1888 145.443 47.9517C145.205 47.7145 144.918 47.5311 144.603 47.4139C144.288 47.2967 143.951 47.2485 143.616 47.2724H142.24V52.274H143.616C143.951 52.298 144.288 52.2497 144.603 52.1325C144.918 52.0153 145.205 51.8319 145.443 51.5948C145.681 51.3576 145.864 51.0722 145.982 50.7579C146.1 50.4436 146.148 50.1078 146.124 49.7732Z" fill="#6AC9C8"/>
<path d="M154.62 53V46.5464H155.429V53H154.62Z" fill="#6AC9C8"/>
<path d="M167.97 53L167.403 51.5479H164.167L163.601 53H162.711L165.3 46.5464H166.271L168.86 53H167.97ZM165.785 47.3531L164.41 50.8219H167.161L165.785 47.3531Z" fill="#6AC9C8"/>
<path d="M192 52.8387H176.223V46.4658H185.608V6.37291H176.303V0H192V52.8387Z" fill="#6AC9C8"/>
<path d="M91.5904 52.8387H107.368V46.4658H97.9823V6.37291H107.287V0H91.5904V52.8387Z" fill="#6AC9C8"/>
</svg>
